<svg width="150" height="16" viewBox="0 0 150 16" fill="none" xmlns="http://www.w3.org/2000/svg">
<path d="M0 7.92799L8.29553 4.64155L8.29559 11.2151L0 7.92799Z" fill="#FF7E2B"/>
<path d="M24.1827 7.92682L31.6334 4.44689L31.7543 11.2626L24.1827 7.92682Z" fill="#D1021F"/>
<path d="M40.101 7.92785L31.5715 4.44735L31.753 11.2633L40.101 7.92785Z" fill="#D1021F"/>
<path d="M15.2373 7.87917L26.6737 2.56196L20.0805 0L13.4586 2.56196L13.4603 13.293L20.0805 16L26.9759 13.148L15.2373 7.87917Z" fill="#1B80C7"/>
<path d="M56.6381 14.0426H53.0464L50.719 9.64534L49.7767 10.196V14.0426H46.5796V2.54207H49.7767V7.53717C49.9109 7.28545 50.064 7.03373 50.2358 6.78201C50.4129 6.53029 50.5847 6.29167 50.7512 6.06617L53.2235 2.54207H56.7026L52.99 7.6945L56.6381 14.0426Z" fill="#1B80C7"/>
<path d="M68.9355 8.27661C68.9355 9.16288 68.8254 9.97048 68.6053 10.6994C68.3906 11.4231 68.0523 12.0472 67.5906 12.5716C67.1289 13.096 66.5356 13.4998 65.8108 13.783C65.086 14.061 64.219 14.1999 63.2096 14.1999C62.2217 14.1999 61.3654 14.061 60.6406 13.783C59.9212 13.4998 59.3279 13.0986 58.8608 12.5795C58.3937 12.0551 58.0475 11.4284 57.822 10.6994C57.5965 9.97048 57.4837 9.15763 57.4837 8.26087C57.4837 7.06519 57.6851 6.02684 58.0877 5.14582C58.4958 4.25955 59.1239 3.57518 59.9722 3.09271C60.8205 2.605 61.905 2.36114 63.2257 2.36114C64.5679 2.36114 65.6578 2.605 66.4954 3.09271C67.3383 3.58042 67.9557 4.26741 68.3476 5.15368C68.7395 6.03995 68.9355 7.08093 68.9355 8.27661ZM60.8339 8.27661C60.8339 8.96884 60.9144 9.56406 61.0755 10.0623C61.2366 10.5605 61.4916 10.9433 61.8406 11.2107C62.1895 11.4782 62.6459 11.6119 63.2096 11.6119C63.7948 11.6119 64.2592 11.4782 64.6028 11.2107C64.9518 10.9433 65.2015 10.5605 65.3518 10.0623C65.5075 9.56406 65.5853 8.96884 65.5853 8.27661C65.5853 7.23825 65.4082 6.41754 65.0538 5.81445C64.6995 5.21137 64.0901 4.90983 63.2257 4.90983C62.6513 4.90983 62.1868 5.04618 61.8325 5.31887C61.4835 5.59157 61.2285 5.97964 61.0674 6.48309C60.9117 6.98653 60.8339 7.58437 60.8339 8.27661Z" fill="#1B80C7"/>
<path d="M81.0557 8.04848C81.0557 9.38575 80.8007 10.4975 80.2906 11.3838C79.7806 12.2701 79.0612 12.9361 78.1324 13.3818C77.2089 13.8223 76.1217 14.0426 74.8708 14.0426H71.0616V2.54207H75.1365C76.4036 2.54207 77.4774 2.75446 78.3578 3.17924C79.2383 3.60402 79.9068 4.22546 80.3631 5.04355C80.8248 5.86165 81.0557 6.86329 81.0557 8.04848ZM77.7539 8.15861C77.7539 7.46113 77.6572 6.88427 77.4639 6.42802C77.276 5.96653 76.9915 5.62304 76.6103 5.39754C76.2291 5.16679 75.7486 5.05142 75.1687 5.05142H74.2426V11.4939H74.9513C75.9177 11.4939 76.6264 11.2212 77.0774 10.6758C77.5284 10.1252 77.7539 9.28611 77.7539 8.15861Z" fill="#1B80C7"/>
<path d="M90.164 14.0426H83.1737V2.54207H90.164V5.03569H86.3548V6.84494H89.8821V9.33856H86.3548V11.5097H90.164V14.0426Z" fill="#1B80C7"/>
<path d="M92.2256 14.0426V2.54207H95.4228V14.0426H92.2256Z" fill="#1B80C7"/>
<path d="M109.186 14.0426H105.014L100.714 5.94031H100.641C100.668 6.18679 100.692 6.48309 100.714 6.82921C100.735 7.17532 100.754 7.52931 100.77 7.89116C100.786 8.24776 100.794 8.57028 100.794 8.85871V14.0426H97.9757V2.54207H102.131L106.416 10.5342H106.464C106.448 10.2825 106.432 9.99146 106.416 9.66107C106.399 9.32545 106.383 8.98719 106.367 8.64632C106.356 8.30545 106.351 8.00391 106.351 7.7417V2.54207H109.186V14.0426Z" fill="#1B80C7"/>
<path d="M117.577 14.0426H113.406L109.186 5.98749C109.186 5.98749 109.186 6.4811 109.186 6.83141C109.207 7.17753 109.17 7.52898 109.186 7.89083C109.202 8.24743 109.186 8.57028 109.186 8.85871L109.186 14.0426H106.367V2.54207H110.523L114.807 10.5342H114.855C114.839 10.2825 114.823 9.99146 114.807 9.66107C114.791 9.32545 114.775 8.98719 114.759 8.64632C114.748 8.30545 114.743 8.00391 114.743 7.7417V2.54207H117.577V14.0426Z" fill="#FF7E2B"/>
<path d="M131.139 8.27661C131.139 9.16288 131.029 9.97048 130.809 10.6994C130.594 11.4231 130.256 12.0472 129.794 12.5716C129.333 13.096 128.739 13.4998 128.015 13.783C127.29 14.061 126.423 14.1999 125.413 14.1999C124.425 14.1999 123.569 14.061 122.844 13.783C122.125 13.4998 121.532 13.0986 121.065 12.5795C120.597 12.0551 120.251 11.4284 120.026 10.6994C119.8 9.97048 119.687 9.15763 119.687 8.26087C119.687 7.06519 119.889 6.02684 120.291 5.14582C120.699 4.25955 121.328 3.57518 122.176 3.09271C123.024 2.605 124.109 2.36114 125.429 2.36114C126.772 2.36114 127.861 2.605 128.699 3.09271C129.542 3.58042 130.159 4.26741 130.551 5.15368C130.943 6.03995 131.139 7.08093 131.139 8.27661ZM123.038 8.27661C123.038 8.96884 123.118 9.56406 123.279 10.0623C123.44 10.5605 123.695 10.9433 124.044 11.2107C124.393 11.4782 124.85 11.6119 125.413 11.6119C125.998 11.6119 126.463 11.4782 126.807 11.2107C127.155 10.9433 127.405 10.5605 127.555 10.0623C127.711 9.56406 127.789 8.96884 127.789 8.27661C127.789 7.23825 127.612 6.41754 127.257 5.81445C126.903 5.21137 126.294 4.90983 125.429 4.90983C124.855 4.90983 124.391 5.04618 124.036 5.31887C123.687 5.59157 123.432 5.97964 123.271 6.48309C123.115 6.98653 123.038 7.58437 123.038 8.27661Z" fill="#FF7E2B"/>
<path d="M138.46 14.0426H135.279V5.08289H132.404V2.54207H141.327V5.08289H138.46V14.0426Z" fill="#FF7E2B"/>
<path d="M150 14.0426H143.01V2.54207H150V5.03569H146.191V6.84494H149.718V9.33856H146.191V11.5097H150V14.0426Z" fill="#FF7E2B"/>
</svg>
